<?xml version="1.0" encoding="UTF-8"?>
<svg width="114px" height="128px" viewBox="0 0 114 128" version="1.1" xmlns="http://www.w3.org/2000/svg" xmlns:xlink="http://www.w3.org/1999/xlink">
    <title>metric-bg-selected@3x</title>
    <defs>
        <polygon id="path-1" points="0 0 112 0 112 20 110 38 110 90 112 108 112 128 0 128 0 108 2 90 2 38 0 20"></polygon>
        <filter x="-22.3%" y="-19.5%" width="144.6%" height="139.1%" filterUnits="objectBoundingBox" id="filter-2">
            <feGaussianBlur stdDeviation="25" in="SourceAlpha" result="shadowBlurInner1"></feGaussianBlur>
            <feOffset dx="0" dy="0" in="shadowBlurInner1" result="shadowOffsetInner1"></feOffset>
            <feComposite in="shadowOffsetInner1" in2="SourceAlpha" operator="arithmetic" k2="-1" k3="1" result="shadowInnerInner1"></feComposite>
            <feColorMatrix values="0 0 0 0 0.176470588 0 0 0 0 0.501960784 0 0 0 0 1 0 0 0 0.9 0" type="matrix" in="shadowInnerInner1"></feColorMatrix>
        </filter>
        <linearGradient x1="0%" y1="50%" x2="100%" y2="50%" id="linearGradient-3">
            <stop stop-color="#FFFFFF" stop-opacity="0" offset="0%"></stop>
            <stop stop-color="#FFFFFF" stop-opacity="0.5" offset="49.8617832%"></stop>
            <stop stop-color="#FFFFFF" stop-opacity="0" offset="100%"></stop>
        </linearGradient>
    </defs>
    <g stroke="none" stroke-width="1" fill="none" fill-rule="evenodd">
        <polyline stroke="#73879B" stroke-width="0.5" points="1 24 0 31 0 97 1 104"></polyline>
        <polyline stroke="#73879B" stroke-width="0.5" transform="translate(111.5, 64) scale(-1, 1) translate(-111.5, -64)" points="112 24 111 31 111 97 112 104"></polyline>
        <g>
            <use fill-opacity="0.1" fill="#62BEEB" fill-rule="evenodd" xlink:href="#path-1"></use>
            <use fill="black" fill-opacity="1" filter="url(#filter-2)" xlink:href="#path-1"></use>
            <path stroke="#62BEEB" stroke-width="1" d="M111.5,0.5 L111.5,19.9723074 L109.5,37.9723074 L109.5,90.0276926 L111.5,108.027693 L111.5,127.5 L0.5,127.5 L0.5,108.027693 L2.5,90.0276926 L2.5,37.9723074 L0.5,19.9723074 L0.5,0.5 L111.5,0.5 Z" stroke-linejoin="square"></path>
        </g>
        <rect fill="url(#linearGradient-3)" x="16" y="56" width="80" height="1"></rect>
    </g>
</svg>
